<svg xmlns="http://www.w3.org/2000/svg" width="5669.29" height="2834.65"><g clip-rule="evenodd"><path fill="none" d="M2716.134 1332.463v-46.852c0-.111.016-.226-.003-.334-.042-.233.038-.313.271-.271.108.02.223.003.334.003h77.797c.111 0 .226.016.333-.003.234-.042.314.038.271.271-.02.108-.003.223-.003.334v93.704c0 .111-.017.226.003.333.043.234-.037.314-.271.271-.107-.02-.222-.003-.333-.003h-77.797c-.111 0-.226-.016-.334.003-.233.042-.313-.038-.271-.271.02-.107.003-.222.003-.333v-46.852zm39.49-12.861c-1.507-.023-2.692.423-3.731 1.328-.69.601-1.317 1.261-1.965 1.902-2.212 2.192-4.405 4.405-6.609 6.607-1.92 1.919-3.845 3.833-5.766 5.751-1.999 1.998-3.995 3.998-5.993 5.996l-5.759 5.758c-1.967 1.967-3.941 3.927-5.896 5.906-.842.853-1.765 1.63-2.483 2.603-1.018 1.378-1.355 2.92-.96 4.567.266 1.111.867 2.048 1.75 2.839 1.895 1.699 5.075 1.76 7.034.055 1.21-1.052 2.29-2.238 3.429-3.364 1.961-1.94 3.899-3.903 5.851-5.854 1.715-1.715 3.435-3.425 5.149-5.139 1.715-1.714 3.427-3.432 5.141-5.147l5.995-5.994c1.416-1.416 2.829-2.835 4.248-4.249.432-.43.46-.427.9.014.991.991 1.977 1.988 2.967 2.979 1.698 1.7 3.397 3.397 5.098 5.096l5.901 5.898c1.699 1.699 3.396 3.4 5.096 5.099 2.203 2.202 4.405 4.406 6.613 6.604 1.34 1.334 2.648 2.703 4.044 3.977 2.084 1.903 5.521 1.838 7.562-.407 1.112-1.224 1.622-2.676 1.381-4.387-.182-1.293-.716-2.37-1.611-3.271-3.574-3.6-7.161-7.188-10.75-10.774-3.776-3.775-7.563-7.542-11.34-11.316-3.762-3.76-7.512-7.531-11.279-11.285-1.142-1.132-2.473-1.884-4.017-1.792zm33.562 11.676c1.002.034 1.873-.217 2.724-.655 1.549-.798 3.089-3.056 2.705-5.475-.2-1.263-.722-2.311-1.614-3.201-1.905-1.901-3.808-3.806-5.711-5.708l-6.839-6.836c-2.99-2.989-5.982-5.975-8.971-8.966-3.981-3.984-7.959-7.971-11.939-11.956-.669-.669-1.429-1.203-2.342-1.479-2.209-.669-4.12-.125-5.735 1.485-2.633 2.623-5.25 5.261-7.878 7.89-4.122 4.124-8.248 8.244-12.372 12.365l-6.936 6.932c-2.057 2.055-4.108 4.115-6.171 6.163-1.337 1.327-1.98 2.879-1.71 4.786.295 2.08 1.44 3.578 3.333 4.304 2.002.769 3.983.497 5.661-.997 1.048-.933 2.002-1.963 2.994-2.953 1.747-1.742 3.493-3.486 5.238-5.23 1.95-1.948 3.898-3.897 5.851-5.843 1.667-1.662 3.344-3.315 5.008-4.979 1.538-1.538 3.064-3.087 4.599-4.629 1.298-1.305 2.6-2.606 3.901-3.909.721-.722 1.441-1.444 2.166-2.162.324-.32.403-.337.7.007.277.321.604.586.898.886 1.215 1.229 2.426 2.46 3.648 3.682 1.538 1.538 3.087 3.064 4.628 4.599 1.494 1.489 2.984 2.98 4.476 4.472 1.741 1.743 3.482 3.485 5.222 5.23 1.192 1.196 2.374 2.402 3.569 3.595 2.234 2.229 4.482 4.445 6.713 6.679 1.174 1.176 2.5 1.984 4.184 1.903zm-44.981 41.353c0 2.139-.001 4.277.001 6.416 0 .459.009.467.475.468 1.805.003 3.608-.007 5.413.004a8.036 8.036 0 0 0 1.59-.159c1.146-.225 2.152-.685 2.79-1.748 1.063-1.771.68-4.205-1.568-5.121-.083-.033-.17-.055-.248-.097-.154-.084-.182-.152.003-.26.465-.272.873-.609 1.173-1.069 1.259-1.93.046-4.309-1.968-4.902a6.622 6.622 0 0 0-1.905-.283c-1.738.005-3.475.002-5.213.001-.569 0-.544-.049-.544.535.002 2.072.001 4.144.001 6.215zm13.358-.001c0 2.116-.001 4.231.001 6.347 0 .533.006.538.54.538 2.984.002 5.969.005 8.952-.004.391-.001.923.187 1.136-.104.193-.265.062-.767.073-1.165 0-.022-.002-.045 0-.067.016-.204-.089-.274-.28-.265-.155.007-.312.001-.468.001h-7.549c-.513 0-.517.028-.515-.506.006-1.225-.001-2.449.003-3.674.002-.487.009-.493.523-.494 2.25-.003 4.498 0 6.748-.002.721 0 .631.049.638-.649v-.133c0-.825 0-.825-.796-.825h-6.547c-.635 0-.566.03-.567-.584-.001-1.002-.002-2.004.001-3.007.002-.542.006-.547.536-.548 2.294-.002 4.587.005 6.881-.007.345-.002.78.169 1.016-.102.2-.231.053-.641.064-.971.022-.608-.04-.529-.559-.529-3.096 0-6.191-.001-9.286.001-.539 0-.544.005-.545.534v6.215zm-41.025-.003c0 1.826-.008 3.651.006 5.476.003.458-.21 1.06.106 1.335.306.266.895.054 1.358.077.022.001.045-.002.066 0 .244.025.382-.054.356-.329-.015-.155-.002-.312-.002-.467 0-1.714.004-3.428-.005-5.142-.001-.307.024-.487.418-.483 2.226.018 4.452.013 6.678.003.286-.001.394.078.384.375-.019.623-.005 1.247-.005 1.87 0 1.247.014 2.493-.009 3.739-.007.366.121.464.458.438.31-.023.623-.007.935-.004.516.005.52.02.51-.508v-12.421c0-.133-.009-.268.001-.4.019-.233-.087-.314-.312-.308-.355.01-.712.004-1.068.001-.521-.003-.517-.029-.515.502.004 1.558-.009 3.117.009 4.674.004.352-.102.448-.449.446-2.182-.015-4.363-.005-6.544-.009-.474 0-.481-.009-.483-.467-.004-1.269.003-2.538-.004-3.807-.002-.419.174-.959-.068-1.228-.28-.311-.84-.089-1.277-.104-.537-.02-.542 0-.543.53-.002 2.072-.001 4.142-.001 6.211zm54.317.07c0 1.869-.004 3.739.004 5.608.001.375-.16.847.066 1.1.26.288.754.101 1.143.105.855.009.724.101.729-.749.007-1.469.01-2.938-.005-4.407-.003-.335.075-.47.44-.457.801.027 1.603.009 2.403.008.911-.002 1.821.007 2.728-.139 1.521-.245 2.651-.991 3.21-2.465a3.983 3.983 0 0 0 .209-2.159c-.255-1.398-.968-2.408-2.345-2.893a6.548 6.548 0 0 0-2.156-.36c-1.959-.009-3.917-.006-5.876-.01-.547-.001-.552-.044-.551.54.004 2.094.001 4.185.001 6.278zm-29.225 6.819c.178 0 .355-.001.534 0 .768.004.624-.026.379-.589a2421.634 2421.634 0 0 0-5.11-11.703c-.2-.456-.23-1.107-.703-1.294-.443-.176-1.008-.033-1.519-.054-.244-.011-.365.09-.437.307-.049.146-.121.286-.179.429-1.158 2.831-2.317 5.662-3.473 8.494-.553 1.354-1.093 2.714-1.655 4.064-.106.257-.1.358.208.349.422-.013.847-.023 1.268.004.32.021.466-.092.578-.397.425-1.165.889-2.317 1.327-3.478.104-.275.227-.42.566-.416 1.668.022 3.338.021 5.006.001.327-.004.472.117.583.397.393.989.8 1.972 1.205 2.956.384.931.386.93 1.422.93zm52.003 0c.426 0 .692.003.96-.001.11-.001.279.019.317-.039.059-.091-.068-.19-.133-.277-.479-.642-.956-1.285-1.438-1.925-1.109-1.476-2.222-2.951-3.331-4.427-.361-.482-.36-.486.003-.964.324-.425.654-.844.979-1.268 1.139-1.482 2.276-2.965 3.412-4.449.052-.068.129-.164.112-.225-.021-.085-.145-.056-.227-.057-.445-.002-.892.013-1.336-.006-.293-.013-.482.08-.669.322-1.169 1.515-2.417 2.968-3.527 4.528-.159.224-.238.243-.405-.007-1.039-1.555-2.219-3.007-3.322-4.516-.116-.158-.215-.331-.464-.326-.601.012-1.203.003-1.804.006-.137 0-.215.055-.118.197.075.11.161.213.24.32 1.409 1.892 2.811 3.789 4.234 5.668.211.278.239.44.007.725-.817.999-1.6 2.026-2.396 3.041-.879 1.121-1.761 2.239-2.639 3.361-.065.083-.169.178-.116.285.021.043.165.033.253.034.424.003.85-.032 1.27.01.476.048.771-.129 1.054-.51 1.218-1.646 2.472-3.264 3.698-4.902.192-.258.266-.185.419.023 1.108 1.504 2.258 2.98 3.331 4.51.465.661.946 1.09 1.636.869z"/><path fill-rule="evenodd" fill="#FE7B01" d="M2755.624 1319.602c1.544-.092 2.875.66 4.015 1.794 3.768 3.753 7.518 7.525 11.279 11.285 3.777 3.775 7.563 7.541 11.34 11.316 3.589 3.586 7.176 7.174 10.75 10.774.896.901 1.43 1.978 1.611 3.271.241 1.711-.269 3.163-1.381 4.387-2.041 2.245-5.478 2.31-7.562.407-1.396-1.274-2.704-2.643-4.044-3.977-2.208-2.198-4.41-4.402-6.613-6.604-1.699-1.699-3.396-3.4-5.096-5.099l-5.901-5.898c-1.7-1.699-3.399-3.396-5.098-5.096-.99-.992-1.976-1.989-2.967-2.979-.44-.44-.469-.444-.9-.014-1.419 1.413-2.832 2.833-4.248 4.249l-5.995 5.994c-1.714 1.715-3.426 3.433-5.141 5.147-1.715 1.714-3.435 3.424-5.149 5.139-1.951 1.951-3.89 3.914-5.851 5.854-1.139 1.126-2.219 2.313-3.429 3.364-1.959 1.705-5.139 1.644-7.034-.055-.883-.792-1.484-1.728-1.75-2.839-.395-1.647-.058-3.189.96-4.567.718-.973 1.641-1.75 2.483-2.603 1.955-1.979 3.929-3.938 5.896-5.906l5.759-5.758c1.998-1.998 3.994-3.999 5.993-5.996 1.921-1.918 3.846-3.832 5.766-5.751 2.204-2.202 4.396-4.415 6.609-6.607.647-.642 1.275-1.302 1.965-1.902 1.04-.907 2.226-1.353 3.733-1.33z"/><path fill-rule="evenodd" fill="#FEEA01" d="M2789.186 1331.278c-1.684.081-3.01-.727-4.184-1.903-2.23-2.233-4.479-4.45-6.713-6.679-1.195-1.193-2.377-2.399-3.569-3.595-1.739-1.745-3.48-3.487-5.222-5.23-1.491-1.492-2.981-2.983-4.476-4.472-1.541-1.535-3.09-3.062-4.628-4.599-1.223-1.222-2.434-2.453-3.648-3.682-.295-.299-.621-.564-.898-.886-.297-.344-.376-.327-.7-.007-.725.718-1.445 1.44-2.166 2.162-1.301 1.302-2.603 2.604-3.901 3.909-1.534 1.542-3.061 3.091-4.599 4.629-1.665 1.665-3.341 3.317-5.008 4.979-1.953 1.945-3.901 3.895-5.851 5.843-1.746 1.744-3.491 3.488-5.238 5.23-.992.99-1.946 2.02-2.994 2.953-1.678 1.494-3.658 1.766-5.661.997-1.892-.726-3.038-2.224-3.333-4.304-.271-1.907.373-3.459 1.71-4.786 2.063-2.048 4.114-4.108 6.171-6.163l6.936-6.932c4.124-4.121 8.25-8.241 12.372-12.365 2.628-2.628 5.245-5.267 7.878-7.89 1.616-1.61 3.526-2.154 5.735-1.485.913.276 1.673.81 2.342 1.479 3.98 3.984 7.958 7.972 11.939 11.956 2.988 2.991 5.98 5.977 8.971 8.966l6.839 6.836c1.903 1.902 3.806 3.807 5.711 5.708.893.89 1.414 1.938 1.614 3.201.384 2.419-1.156 4.677-2.705 5.475-.851.438-1.722.689-2.724.655z"/><path fill-rule="evenodd" fill="#FE7B01" d="M2744.205 1372.631v-6.215c0-.584-.025-.536.544-.535 1.738 0 3.475.004 5.213-.001.65-.002 1.287.1 1.905.283 2.014.594 3.227 2.973 1.968 4.902-.3.46-.708.797-1.173 1.069-.185.108-.157.176-.003.26.077.042.165.064.248.097 2.249.916 2.631 3.349 1.568 5.121-.638 1.063-1.644 1.523-2.79 1.748a8.036 8.036 0 0 1-1.59.159c-1.805-.011-3.608-.001-5.413-.004-.466 0-.474-.008-.475-.468-.004-2.138-.002-4.277-.002-6.416zm4.313 5.281v-.01c.645 0 1.292.031 1.935-.007.886-.053 1.729-.252 2.25-1.074.735-1.16.395-3.118-1.586-3.448-1.568-.261-3.151-.084-4.728-.135-.247-.008-.291.124-.29.333.004 1.335.008 2.67-.002 4.005-.002.268.102.345.353.341.688-.012 1.378-.005 2.068-.005zm-.097-6.284c.705-.028 1.55.053 2.39-.122 1.047-.218 1.702-.943 1.658-1.938-.05-1.145-.712-1.825-1.71-1.966-1.465-.207-2.933-.063-4.398-.111-.205-.006-.263.106-.262.292.003 1.18.006 2.36-.002 3.54-.002.235.095.311.316.309.623-.008 1.246-.004 2.008-.004zm9.142 1.002c0-2.071-.001-4.142.001-6.213.001-.529.006-.534.545-.534 3.095-.002 6.19-.001 9.286-.001.519 0 .581-.079.559.529-.012.33.136.74-.064.971-.235.271-.671.1-1.016.102-2.294.012-4.587.005-6.881.007-.53 0-.534.006-.536.548-.003 1.002-.002 2.004-.001 3.007.001.614-.067.584.567.584h6.547c.796 0 .796 0 .796.825v.133c-.007.698.083.649-.638.649-2.25.001-4.498-.001-6.748.002-.515 0-.521.007-.523.494-.004 1.225.003 2.45-.003 3.674-.002.534.002.506.515.506a9497.9 9497.9 0 0 1 7.549 0c.156 0 .313.006.468-.001.191-.009.296.061.28.265-.002.022 0 .044 0 .067-.012.397.12.9-.073 1.165-.213.291-.745.102-1.136.104-2.983.009-5.968.006-8.952.004-.534 0-.54-.005-.54-.538-.002-2.118-.002-4.233-.002-6.349zm-41.025-.003c0-2.07-.001-4.14.001-6.21 0-.53.006-.549.543-.53.437.016.997-.206 1.277.104.242.269.065.809.068 1.228.007 1.269 0 2.538.004 3.807.002.458.01.467.483.467 2.181.003 4.362-.006 6.544.009.347.002.453-.094.449-.446-.018-1.558-.005-3.116-.009-4.674-.001-.531-.005-.505.515-.502.356.002.713.009 1.068-.001.225-.006.331.075.312.308-.01.133-.001.267-.001.4v12.421c.009.527.006.513-.51.508-.312-.003-.625-.019-.935.004-.336.025-.464-.073-.458-.438.022-1.246.009-2.493.009-3.739 0-.623-.014-1.247.005-1.87.009-.297-.098-.376-.384-.375a550.57 550.57 0 0 1-6.678-.003c-.394-.003-.419.177-.418.483.009 1.714.005 3.428.005 5.142 0 .156-.013.313.002.467.025.274-.113.354-.356.329-.021-.002-.044.001-.066 0-.464-.023-1.052.188-1.358-.077-.317-.275-.104-.878-.106-1.335-.014-1.826-.006-3.651-.006-5.477zm54.317.07c0-2.092.003-4.184-.001-6.276-.001-.583.004-.541.551-.54 1.959.004 3.917.001 5.876.01a6.548 6.548 0 0 1 2.156.36c1.377.485 2.09 1.494 2.345 2.893a3.983 3.983 0 0 1-.209 2.159c-.559 1.474-1.688 2.22-3.21 2.465-.906.146-1.816.137-2.728.139-.801.001-1.603.019-2.403-.008-.365-.013-.443.122-.44.457.015 1.469.012 2.938.005 4.407-.005.85.127.758-.729.749-.389-.004-.883.183-1.143-.105-.227-.252-.065-.725-.066-1.1-.007-1.871-.004-3.741-.004-5.61zm4.648-5.207c-.866 0-1.577.013-2.288-.006-.311-.008-.428.073-.424.405.018 1.333.017 2.667 0 4.001-.004.32.09.419.412.414 1.268-.02 2.535-.005 3.802-.021a4.541 4.541 0 0 0 1.368-.251c1.009-.336 1.54-1.176 1.497-2.332-.04-1.081-.751-1.877-1.798-2.103-.902-.195-1.816-.059-2.569-.107zm-33.873 12.026c-1.036 0-1.038.001-1.421-.93-.405-.984-.813-1.967-1.205-2.956-.111-.281-.256-.401-.583-.397-1.668.02-3.337.021-5.006-.001-.339-.004-.462.141-.566.416-.438 1.161-.902 2.313-1.327 3.478-.112.305-.258.418-.578.397a13.404 13.404 0 0 0-1.268-.004c-.308.01-.314-.092-.208-.349.562-1.351 1.102-2.71 1.655-4.064 1.156-2.832 2.314-5.663 3.473-8.494.059-.144.13-.283.179-.429.071-.216.192-.317.437-.307.511.021 1.076-.122 1.519.054.472.188.502.839.703 1.294 1.714 3.896 3.417 7.797 5.11 11.703.244.563.389.593-.379.589h-.535zm-5.781-5.882c.689 0 1.378-.003 2.067.001.223.001.276-.076.166-.272-.032-.057-.037-.128-.062-.189-.721-1.762-1.459-3.517-2.088-5.314-.021-.062-.05-.121-.076-.181-.033.072-.079.142-.099.218a20.959 20.959 0 0 1-.791 2.394c-.395.986-.796 1.971-1.189 2.958-.148.372-.142.38.271.385.601.005 1.201 0 1.801 0zm57.784 5.882c-.689.221-1.171-.208-1.635-.87-1.073-1.53-2.223-3.006-3.331-4.51-.153-.208-.227-.281-.419-.023-1.227 1.639-2.48 3.257-3.698 4.902-.282.381-.578.558-1.054.51-.42-.042-.846-.007-1.27-.01-.088 0-.231.009-.253-.034-.053-.107.051-.202.116-.285.878-1.122 1.76-2.24 2.639-3.361.797-1.015 1.579-2.042 2.396-3.041.232-.284.204-.446-.007-.725-1.424-1.88-2.825-3.777-4.234-5.668-.079-.107-.165-.21-.24-.32-.097-.142-.019-.196.118-.197.601-.003 1.203.006 1.804-.006.249-.005.348.167.464.326 1.104 1.508 2.283 2.96 3.322 4.516.167.25.246.231.405.007 1.11-1.56 2.358-3.014 3.527-4.528.187-.242.376-.334.669-.322.444.019.891.004 1.336.006.082 0 .205-.029.227.057.017.062-.061.157-.112.225a2912.586 2912.586 0 0 1-3.412 4.449c-.325.424-.655.843-.979 1.268-.363.478-.364.482-.003.964 1.109 1.477 2.222 2.951 3.331 4.427.481.64.959 1.283 1.438 1.925.064.087.191.186.133.277-.038.058-.207.037-.317.039-.269.005-.535.002-.961.002z"/><path fill="none" d="M2748.518 1377.912c-.69 0-1.38-.007-2.069.004-.251.004-.355-.073-.353-.341.01-1.335.007-2.67.002-4.005-.001-.209.043-.341.29-.333 1.576.051 3.159-.126 4.728.135 1.981.33 2.321 2.289 1.586 3.448-.521.822-1.364 1.021-2.25 1.074-.643.038-1.29.007-1.935.007a.041.041 0 0 1 .001.011zm-.097-6.284c-.762 0-1.385-.004-2.008.003-.221.002-.318-.073-.316-.309.008-1.18.005-2.36.002-3.54-.001-.186.057-.299.262-.292 1.465.048 2.934-.096 4.398.111.998.141 1.66.821 1.71 1.966.043.995-.611 1.721-1.658 1.938-.84.176-1.686.096-2.39.123zm27.082-4.138c.753.048 1.667-.088 2.569.107 1.047.226 1.758 1.022 1.798 2.103.043 1.156-.488 1.995-1.497 2.332a4.48 4.48 0 0 1-1.368.251c-1.267.016-2.534.002-3.802.021-.322.005-.416-.094-.412-.414.017-1.334.018-2.668 0-4.001-.004-.333.113-.414.424-.405.711.019 1.422.006 2.288.006zm-39.654 6.144c-.6 0-1.2.005-1.8-.001-.413-.004-.419-.013-.271-.385.393-.987.794-1.971 1.189-2.958.313-.782.575-1.58.791-2.394.02-.076.065-.146.099-.218.025.06.054.119.076.181.629 1.798 1.367 3.553 2.088 5.314.025.062.029.133.062.189.11.196.057.273-.166.272-.69-.003-1.379 0-2.068 0z"/></g></svg>