<?xml version="1.0" encoding="utf-8"?>
<!-- Generator: Adobe Illustrator 16.0.0, SVG Export Plug-In . SVG Version: 6.00 Build 0)  -->
<!DOCTYPE svg PUBLIC "-//W3C//DTD SVG 1.1//EN" "http://www.w3.org/Graphics/SVG/1.1/DTD/svg11.dtd">
<svg version="1.1" id="Слой_1" xmlns="http://www.w3.org/2000/svg" xmlns:xlink="http://www.w3.org/1999/xlink" x="0px" y="0px"
	 width="5669.29px" height="2834.65px" viewBox="0 0 5669.29 2834.65" enable-background="new 0 0 5669.29 2834.65"
	 xml:space="preserve">
<g>
	<g>
		<path fill-rule="evenodd" clip-rule="evenodd" fill="none" d="M2716.134,1332.463c0-15.617,0-31.234,0-46.852
			c0-0.111,0.016-0.226-0.003-0.334c-0.042-0.233,0.038-0.313,0.271-0.271c0.108,0.02,0.223,0.003,0.334,0.003
			c25.932,0,51.864,0,77.797,0c0.111,0,0.226,0.016,0.333-0.003c0.234-0.042,0.314,0.038,0.271,0.271
			c-0.02,0.108-0.003,0.223-0.003,0.334c0,31.234,0,62.469,0,93.704c0,0.111-0.017,0.226,0.003,0.333
			c0.043,0.234-0.037,0.314-0.271,0.271c-0.107-0.02-0.222-0.003-0.333-0.003c-25.933,0-51.865,0-77.797,0
			c-0.111,0-0.226-0.016-0.334,0.003c-0.233,0.042-0.313-0.038-0.271-0.271c0.02-0.107,0.003-0.222,0.003-0.333
			C2716.134,1363.698,2716.134,1348.081,2716.134,1332.463z M2755.624,1319.602c-1.507-0.023-2.692,0.423-3.731,1.328
			c-0.69,0.601-1.317,1.261-1.965,1.902c-2.212,2.192-4.405,4.405-6.609,6.607c-1.92,1.919-3.845,3.833-5.766,5.751
			c-1.999,1.998-3.995,3.998-5.993,5.996c-1.919,1.92-3.84,3.838-5.759,5.758c-1.967,1.967-3.941,3.927-5.896,5.906
			c-0.842,0.853-1.765,1.63-2.483,2.603c-1.018,1.378-1.355,2.92-0.96,4.567c0.266,1.111,0.867,2.048,1.75,2.839
			c1.895,1.699,5.075,1.76,7.034,0.055c1.21-1.052,2.29-2.238,3.429-3.364c1.961-1.94,3.899-3.903,5.851-5.854
			c1.715-1.715,3.435-3.425,5.149-5.139c1.715-1.714,3.427-3.432,5.141-5.147c1.998-1.999,3.997-3.996,5.995-5.994
			c1.416-1.416,2.829-2.835,4.248-4.249c0.432-0.43,0.46-0.427,0.9,0.014c0.991,0.991,1.977,1.988,2.967,2.979
			c1.698,1.7,3.397,3.397,5.098,5.096c1.967,1.966,3.935,3.932,5.901,5.898c1.699,1.699,3.396,3.4,5.096,5.099
			c2.203,2.202,4.405,4.406,6.613,6.604c1.34,1.334,2.648,2.703,4.044,3.977c2.084,1.903,5.521,1.838,7.562-0.407
			c1.112-1.224,1.622-2.676,1.381-4.387c-0.182-1.293-0.716-2.37-1.611-3.271c-3.574-3.6-7.161-7.188-10.75-10.774
			c-3.776-3.775-7.563-7.542-11.34-11.316c-3.762-3.76-7.512-7.531-11.279-11.285
			C2758.499,1320.262,2757.168,1319.51,2755.624,1319.602z M2789.186,1331.278c1.002,0.034,1.873-0.217,2.724-0.655
			c1.549-0.798,3.089-3.056,2.705-5.475c-0.2-1.263-0.722-2.311-1.614-3.201c-1.905-1.901-3.808-3.806-5.711-5.708
			c-2.279-2.279-4.559-4.558-6.839-6.836c-2.99-2.989-5.982-5.975-8.971-8.966c-3.981-3.984-7.959-7.971-11.939-11.956
			c-0.669-0.669-1.429-1.203-2.342-1.479c-2.209-0.669-4.12-0.125-5.735,1.485c-2.633,2.623-5.25,5.261-7.878,7.89
			c-4.122,4.124-8.248,8.244-12.372,12.365c-2.312,2.311-4.624,4.621-6.936,6.932c-2.057,2.055-4.108,4.115-6.171,6.163
			c-1.337,1.327-1.98,2.879-1.71,4.786c0.295,2.08,1.44,3.578,3.333,4.304c2.002,0.769,3.983,0.497,5.661-0.997
			c1.048-0.933,2.002-1.963,2.994-2.953c1.747-1.742,3.493-3.486,5.238-5.23c1.95-1.948,3.898-3.897,5.851-5.843
			c1.667-1.662,3.344-3.315,5.008-4.979c1.538-1.538,3.064-3.087,4.599-4.629c1.298-1.305,2.6-2.606,3.901-3.909
			c0.721-0.722,1.441-1.444,2.166-2.162c0.324-0.32,0.403-0.337,0.7,0.007c0.277,0.321,0.604,0.586,0.898,0.886
			c1.215,1.229,2.426,2.46,3.648,3.682c1.538,1.538,3.087,3.064,4.628,4.599c1.494,1.489,2.984,2.98,4.476,4.472
			c1.741,1.743,3.482,3.485,5.222,5.23c1.192,1.196,2.374,2.402,3.569,3.595c2.234,2.229,4.482,4.445,6.713,6.679
			C2786.176,1330.551,2787.502,1331.359,2789.186,1331.278z M2744.205,1372.631c0,2.139-0.001,4.277,0.001,6.416
			c0,0.459,0.009,0.467,0.475,0.468c1.805,0.003,3.608-0.007,5.413,0.004c0.538,0.003,1.069-0.057,1.59-0.159
			c1.146-0.225,2.152-0.685,2.79-1.748c1.063-1.771,0.68-4.205-1.568-5.121c-0.083-0.033-0.17-0.055-0.248-0.097
			c-0.154-0.084-0.182-0.152,0.003-0.26c0.465-0.272,0.873-0.609,1.173-1.069c1.259-1.93,0.046-4.309-1.968-4.902
			c-0.618-0.183-1.255-0.285-1.905-0.283c-1.738,0.005-3.475,0.002-5.213,0.001c-0.569,0-0.544-0.049-0.544,0.535
			C2744.206,1368.488,2744.205,1370.56,2744.205,1372.631z M2757.563,1372.63c0,2.116-0.001,4.231,0.001,6.347
			c0,0.533,0.006,0.538,0.54,0.538c2.984,0.002,5.969,0.005,8.952-0.004c0.391-0.001,0.923,0.187,1.136-0.104
			c0.193-0.265,0.062-0.767,0.073-1.165c0-0.022-0.002-0.045,0-0.067c0.016-0.204-0.089-0.274-0.28-0.265
			c-0.155,0.007-0.312,0.001-0.468,0.001c-2.516,0-5.032-0.001-7.549,0c-0.513,0-0.517,0.028-0.515-0.506
			c0.006-1.225-0.001-2.449,0.003-3.674c0.002-0.487,0.009-0.493,0.523-0.494c2.25-0.003,4.498,0,6.748-0.002
			c0.721,0,0.631,0.049,0.638-0.649c0-0.044,0-0.089,0-0.133c0-0.825,0-0.825-0.796-0.825c-2.182,0-4.364,0-6.547,0
			c-0.635,0-0.566,0.03-0.567-0.584c-0.001-1.002-0.002-2.004,0.001-3.007c0.002-0.542,0.006-0.547,0.536-0.548
			c2.294-0.002,4.587,0.005,6.881-0.007c0.345-0.002,0.78,0.169,1.016-0.102c0.2-0.231,0.053-0.641,0.064-0.971
			c0.022-0.608-0.04-0.529-0.559-0.529c-3.096,0-6.191-0.001-9.286,0.001c-0.539,0-0.544,0.005-0.545,0.534
			C2757.563,1368.488,2757.563,1370.559,2757.563,1372.63z M2716.538,1372.627c0,1.826-0.008,3.651,0.006,5.476
			c0.003,0.458-0.21,1.06,0.106,1.335c0.306,0.266,0.895,0.054,1.358,0.077c0.022,0.001,0.045-0.002,0.066,0
			c0.244,0.025,0.382-0.054,0.356-0.329c-0.015-0.155-0.002-0.312-0.002-0.467c0-1.714,0.004-3.428-0.005-5.142
			c-0.001-0.307,0.024-0.487,0.418-0.483c2.226,0.018,4.452,0.013,6.678,0.003c0.286-0.001,0.394,0.078,0.384,0.375
			c-0.019,0.623-0.005,1.247-0.005,1.87c0,1.247,0.014,2.493-0.009,3.739c-0.007,0.366,0.121,0.464,0.458,0.438
			c0.31-0.023,0.623-0.007,0.935-0.004c0.516,0.005,0.52,0.02,0.51-0.508c-0.001-0.067,0-0.134,0-0.201c0-4.073,0-8.146,0-12.22
			c0-0.133-0.009-0.268,0.001-0.4c0.019-0.233-0.087-0.314-0.312-0.308c-0.355,0.01-0.712,0.004-1.068,0.001
			c-0.521-0.003-0.517-0.029-0.515,0.502c0.004,1.558-0.009,3.117,0.009,4.674c0.004,0.352-0.102,0.448-0.449,0.446
			c-2.182-0.015-4.363-0.005-6.544-0.009c-0.474,0-0.481-0.009-0.483-0.467c-0.004-1.269,0.003-2.538-0.004-3.807
			c-0.002-0.419,0.174-0.959-0.068-1.228c-0.28-0.311-0.84-0.089-1.277-0.104c-0.537-0.02-0.542,0-0.543,0.53
			C2716.537,1368.488,2716.538,1370.558,2716.538,1372.627z M2770.855,1372.697c0,1.869-0.004,3.739,0.004,5.608
			c0.001,0.375-0.16,0.847,0.066,1.1c0.26,0.288,0.754,0.101,1.143,0.105c0.855,0.009,0.724,0.101,0.729-0.749
			c0.007-1.469,0.01-2.938-0.005-4.407c-0.003-0.335,0.075-0.47,0.44-0.457c0.801,0.027,1.603,0.009,2.403,0.008
			c0.911-0.002,1.821,0.007,2.728-0.139c1.521-0.245,2.651-0.991,3.21-2.465c0.262-0.692,0.345-1.413,0.209-2.159
			c-0.255-1.398-0.968-2.408-2.345-2.893c-0.698-0.246-1.42-0.356-2.156-0.36c-1.959-0.009-3.917-0.006-5.876-0.01
			c-0.547-0.001-0.552-0.044-0.551,0.54C2770.858,1368.513,2770.855,1370.604,2770.855,1372.697z M2741.63,1379.516
			c0.178,0,0.355-0.001,0.534,0c0.768,0.004,0.624-0.026,0.379-0.589c-1.693-3.905-3.396-7.806-5.11-11.703
			c-0.2-0.456-0.23-1.107-0.703-1.294c-0.443-0.176-1.008-0.033-1.519-0.054c-0.244-0.011-0.365,0.09-0.437,0.307
			c-0.049,0.146-0.121,0.286-0.179,0.429c-1.158,2.831-2.317,5.662-3.473,8.494c-0.553,1.354-1.093,2.714-1.655,4.064
			c-0.106,0.257-0.1,0.358,0.208,0.349c0.422-0.013,0.847-0.023,1.268,0.004c0.32,0.021,0.466-0.092,0.578-0.397
			c0.425-1.165,0.889-2.317,1.327-3.478c0.104-0.275,0.227-0.42,0.566-0.416c1.668,0.022,3.338,0.021,5.006,0.001
			c0.327-0.004,0.472,0.117,0.583,0.397c0.393,0.989,0.8,1.972,1.205,2.956C2740.592,1379.517,2740.594,1379.516,2741.63,1379.516z
			 M2793.633,1379.516c0.426,0,0.692,0.003,0.96-0.001c0.11-0.001,0.279,0.019,0.317-0.039c0.059-0.091-0.068-0.19-0.133-0.277
			c-0.479-0.642-0.956-1.285-1.438-1.925c-1.109-1.476-2.222-2.951-3.331-4.427c-0.361-0.482-0.36-0.486,0.003-0.964
			c0.324-0.425,0.654-0.844,0.979-1.268c1.139-1.482,2.276-2.965,3.412-4.449c0.052-0.068,0.129-0.164,0.112-0.225
			c-0.021-0.085-0.145-0.056-0.227-0.057c-0.445-0.002-0.892,0.013-1.336-0.006c-0.293-0.013-0.482,0.08-0.669,0.322
			c-1.169,1.515-2.417,2.968-3.527,4.528c-0.159,0.224-0.238,0.243-0.405-0.007c-1.039-1.555-2.219-3.007-3.322-4.516
			c-0.116-0.158-0.215-0.331-0.464-0.326c-0.601,0.012-1.203,0.003-1.804,0.006c-0.137,0-0.215,0.055-0.118,0.197
			c0.075,0.11,0.161,0.213,0.24,0.32c1.409,1.892,2.811,3.789,4.234,5.668c0.211,0.278,0.239,0.44,0.007,0.725
			c-0.817,0.999-1.6,2.026-2.396,3.041c-0.879,1.121-1.761,2.239-2.639,3.361c-0.065,0.083-0.169,0.178-0.116,0.285
			c0.021,0.043,0.165,0.033,0.253,0.034c0.424,0.003,0.85-0.032,1.27,0.01c0.476,0.048,0.771-0.129,1.054-0.51
			c1.218-1.646,2.472-3.264,3.698-4.902c0.192-0.258,0.266-0.185,0.419,0.023c1.108,1.504,2.258,2.98,3.331,4.51
			C2792.462,1379.308,2792.943,1379.737,2793.633,1379.516z"/>
		<path fill-rule="evenodd" clip-rule="evenodd" fill="#FE7B01" d="M2755.624,1319.602c1.544-0.092,2.875,0.66,4.015,1.794
			c3.768,3.753,7.518,7.525,11.279,11.285c3.777,3.775,7.563,7.541,11.34,11.316c3.589,3.586,7.176,7.174,10.75,10.774
			c0.896,0.901,1.43,1.978,1.611,3.271c0.241,1.711-0.269,3.163-1.381,4.387c-2.041,2.245-5.478,2.31-7.562,0.407
			c-1.396-1.274-2.704-2.643-4.044-3.977c-2.208-2.198-4.41-4.402-6.613-6.604c-1.699-1.699-3.396-3.4-5.096-5.099
			c-1.967-1.966-3.935-3.932-5.901-5.898c-1.7-1.699-3.399-3.396-5.098-5.096c-0.99-0.992-1.976-1.989-2.967-2.979
			c-0.44-0.44-0.469-0.444-0.9-0.014c-1.419,1.413-2.832,2.833-4.248,4.249c-1.998,1.999-3.997,3.996-5.995,5.994
			c-1.714,1.715-3.426,3.433-5.141,5.147c-1.715,1.714-3.435,3.424-5.149,5.139c-1.951,1.951-3.89,3.914-5.851,5.854
			c-1.139,1.126-2.219,2.313-3.429,3.364c-1.959,1.705-5.139,1.644-7.034-0.055c-0.883-0.792-1.484-1.728-1.75-2.839
			c-0.395-1.647-0.058-3.189,0.96-4.567c0.718-0.973,1.641-1.75,2.483-2.603c1.955-1.979,3.929-3.938,5.896-5.906
			c1.919-1.919,3.84-3.838,5.759-5.758c1.998-1.998,3.994-3.999,5.993-5.996c1.921-1.918,3.846-3.832,5.766-5.751
			c2.204-2.202,4.396-4.415,6.609-6.607c0.647-0.642,1.275-1.302,1.965-1.902
			C2752.931,1320.025,2754.117,1319.579,2755.624,1319.602z"/>
		<path fill-rule="evenodd" clip-rule="evenodd" fill="#FEEA01" d="M2789.186,1331.278c-1.684,0.081-3.01-0.727-4.184-1.903
			c-2.23-2.233-4.479-4.45-6.713-6.679c-1.195-1.193-2.377-2.399-3.569-3.595c-1.739-1.745-3.48-3.487-5.222-5.23
			c-1.491-1.492-2.981-2.983-4.476-4.472c-1.541-1.535-3.09-3.062-4.628-4.599c-1.223-1.222-2.434-2.453-3.648-3.682
			c-0.295-0.299-0.621-0.564-0.898-0.886c-0.297-0.344-0.376-0.327-0.7-0.007c-0.725,0.718-1.445,1.44-2.166,2.162
			c-1.301,1.302-2.603,2.604-3.901,3.909c-1.534,1.542-3.061,3.091-4.599,4.629c-1.665,1.665-3.341,3.317-5.008,4.979
			c-1.953,1.945-3.901,3.895-5.851,5.843c-1.746,1.744-3.491,3.488-5.238,5.23c-0.992,0.99-1.946,2.02-2.994,2.953
			c-1.678,1.494-3.658,1.766-5.661,0.997c-1.892-0.726-3.038-2.224-3.333-4.304c-0.271-1.907,0.373-3.459,1.71-4.786
			c2.063-2.048,4.114-4.108,6.171-6.163c2.312-2.311,4.624-4.621,6.936-6.932c4.124-4.121,8.25-8.241,12.372-12.365
			c2.628-2.628,5.245-5.267,7.878-7.89c1.616-1.61,3.526-2.154,5.735-1.485c0.913,0.276,1.673,0.81,2.342,1.479
			c3.98,3.984,7.958,7.972,11.939,11.956c2.988,2.991,5.98,5.977,8.971,8.966c2.28,2.278,4.56,4.557,6.839,6.836
			c1.903,1.902,3.806,3.807,5.711,5.708c0.893,0.89,1.414,1.938,1.614,3.201c0.384,2.419-1.156,4.677-2.705,5.475
			C2791.059,1331.061,2790.188,1331.312,2789.186,1331.278z"/>
		<path fill-rule="evenodd" clip-rule="evenodd" fill="#FE7B01" d="M2744.205,1372.631c0-2.071,0.001-4.143,0-6.215
			c0-0.584-0.025-0.536,0.544-0.535c1.738,0,3.475,0.004,5.213-0.001c0.65-0.002,1.287,0.1,1.905,0.283
			c2.014,0.594,3.227,2.973,1.968,4.902c-0.3,0.46-0.708,0.797-1.173,1.069c-0.185,0.108-0.157,0.176-0.003,0.26
			c0.077,0.042,0.165,0.064,0.248,0.097c2.249,0.916,2.631,3.349,1.568,5.121c-0.638,1.063-1.644,1.523-2.79,1.748
			c-0.521,0.102-1.052,0.162-1.59,0.159c-1.805-0.011-3.608-0.001-5.413-0.004c-0.466,0-0.474-0.008-0.475-0.468
			C2744.203,1376.909,2744.205,1374.77,2744.205,1372.631z M2748.518,1377.912c0-0.003,0-0.007,0-0.01
			c0.645,0,1.292,0.031,1.935-0.007c0.886-0.053,1.729-0.252,2.25-1.074c0.735-1.16,0.395-3.118-1.586-3.448
			c-1.568-0.261-3.151-0.084-4.728-0.135c-0.247-0.008-0.291,0.124-0.29,0.333c0.004,1.335,0.008,2.67-0.002,4.005
			c-0.002,0.268,0.102,0.345,0.353,0.341C2747.138,1377.905,2747.828,1377.912,2748.518,1377.912z M2748.421,1371.628
			c0.705-0.028,1.55,0.053,2.39-0.122c1.047-0.218,1.702-0.943,1.658-1.938c-0.05-1.145-0.712-1.825-1.71-1.966
			c-1.465-0.207-2.933-0.063-4.398-0.111c-0.205-0.006-0.263,0.106-0.262,0.292c0.003,1.18,0.006,2.36-0.002,3.54
			c-0.002,0.235,0.095,0.311,0.316,0.309C2747.036,1371.624,2747.659,1371.628,2748.421,1371.628z"/>
		<path fill-rule="evenodd" clip-rule="evenodd" fill="#FE7B01" d="M2757.563,1372.63c0-2.071-0.001-4.142,0.001-6.213
			c0.001-0.529,0.006-0.534,0.545-0.534c3.095-0.002,6.19-0.001,9.286-0.001c0.519,0,0.581-0.079,0.559,0.529
			c-0.012,0.33,0.136,0.74-0.064,0.971c-0.235,0.271-0.671,0.1-1.016,0.102c-2.294,0.012-4.587,0.005-6.881,0.007
			c-0.53,0-0.534,0.006-0.536,0.548c-0.003,1.002-0.002,2.004-0.001,3.007c0.001,0.614-0.067,0.584,0.567,0.584
			c2.183,0,4.365,0,6.547,0c0.796,0,0.796,0,0.796,0.825c0,0.044,0,0.089,0,0.133c-0.007,0.698,0.083,0.649-0.638,0.649
			c-2.25,0.001-4.498-0.001-6.748,0.002c-0.515,0-0.521,0.007-0.523,0.494c-0.004,1.225,0.003,2.45-0.003,3.674
			c-0.002,0.534,0.002,0.506,0.515,0.506c2.517-0.001,5.033-0.001,7.549,0c0.156,0,0.313,0.006,0.468-0.001
			c0.191-0.009,0.296,0.061,0.28,0.265c-0.002,0.022,0,0.044,0,0.067c-0.012,0.397,0.12,0.9-0.073,1.165
			c-0.213,0.291-0.745,0.102-1.136,0.104c-2.983,0.009-5.968,0.006-8.952,0.004c-0.534,0-0.54-0.005-0.54-0.538
			C2757.563,1376.861,2757.563,1374.746,2757.563,1372.63z"/>
		<path fill-rule="evenodd" clip-rule="evenodd" fill="#FE7B01" d="M2716.538,1372.627c0-2.07-0.001-4.14,0.001-6.21
			c0-0.53,0.006-0.549,0.543-0.53c0.437,0.016,0.997-0.206,1.277,0.104c0.242,0.269,0.065,0.809,0.068,1.228
			c0.007,1.269,0,2.538,0.004,3.807c0.002,0.458,0.01,0.467,0.483,0.467c2.181,0.003,4.362-0.006,6.544,0.009
			c0.347,0.002,0.453-0.094,0.449-0.446c-0.018-1.558-0.005-3.116-0.009-4.674c-0.001-0.531-0.005-0.505,0.515-0.502
			c0.356,0.002,0.713,0.009,1.068-0.001c0.225-0.006,0.331,0.075,0.312,0.308c-0.01,0.133-0.001,0.267-0.001,0.4
			c0,4.074,0,8.147,0,12.22c0,0.067-0.001,0.134,0,0.201c0.009,0.527,0.006,0.513-0.51,0.508c-0.312-0.003-0.625-0.019-0.935,0.004
			c-0.336,0.025-0.464-0.073-0.458-0.438c0.022-1.246,0.009-2.493,0.009-3.739c0-0.623-0.014-1.247,0.005-1.87
			c0.009-0.297-0.098-0.376-0.384-0.375c-2.226,0.009-4.452,0.015-6.678-0.003c-0.394-0.003-0.419,0.177-0.418,0.483
			c0.009,1.714,0.005,3.428,0.005,5.142c0,0.156-0.013,0.313,0.002,0.467c0.025,0.274-0.113,0.354-0.356,0.329
			c-0.021-0.002-0.044,0.001-0.066,0c-0.464-0.023-1.052,0.188-1.358-0.077c-0.317-0.275-0.104-0.878-0.106-1.335
			C2716.53,1376.278,2716.538,1374.453,2716.538,1372.627z"/>
		<path fill-rule="evenodd" clip-rule="evenodd" fill="#FE7B01" d="M2770.855,1372.697c0-2.092,0.003-4.184-0.001-6.276
			c-0.001-0.583,0.004-0.541,0.551-0.54c1.959,0.004,3.917,0.001,5.876,0.01c0.736,0.004,1.458,0.114,2.156,0.36
			c1.377,0.485,2.09,1.494,2.345,2.893c0.136,0.746,0.053,1.467-0.209,2.159c-0.559,1.474-1.688,2.22-3.21,2.465
			c-0.906,0.146-1.816,0.137-2.728,0.139c-0.801,0.001-1.603,0.019-2.403-0.008c-0.365-0.013-0.443,0.122-0.44,0.457
			c0.015,1.469,0.012,2.938,0.005,4.407c-0.005,0.85,0.127,0.758-0.729,0.749c-0.389-0.004-0.883,0.183-1.143-0.105
			c-0.227-0.252-0.065-0.725-0.066-1.1C2770.852,1376.436,2770.855,1374.566,2770.855,1372.697z M2775.503,1367.49
			c-0.866,0-1.577,0.013-2.288-0.006c-0.311-0.008-0.428,0.073-0.424,0.405c0.018,1.333,0.017,2.667,0,4.001
			c-0.004,0.32,0.09,0.419,0.412,0.414c1.268-0.02,2.535-0.005,3.802-0.021c0.466-0.006,0.925-0.104,1.368-0.251
			c1.009-0.336,1.54-1.176,1.497-2.332c-0.04-1.081-0.751-1.877-1.798-2.103C2777.17,1367.402,2776.256,1367.538,2775.503,1367.49z"
			/>
		<path fill-rule="evenodd" clip-rule="evenodd" fill="#FE7B01" d="M2741.63,1379.516c-1.036,0-1.038,0.001-1.421-0.93
			c-0.405-0.984-0.813-1.967-1.205-2.956c-0.111-0.281-0.256-0.401-0.583-0.397c-1.668,0.02-3.337,0.021-5.006-0.001
			c-0.339-0.004-0.462,0.141-0.566,0.416c-0.438,1.161-0.902,2.313-1.327,3.478c-0.112,0.305-0.258,0.418-0.578,0.397
			c-0.421-0.027-0.845-0.017-1.268-0.004c-0.308,0.01-0.314-0.092-0.208-0.349c0.562-1.351,1.102-2.71,1.655-4.064
			c1.156-2.832,2.314-5.663,3.473-8.494c0.059-0.144,0.13-0.283,0.179-0.429c0.071-0.216,0.192-0.317,0.437-0.307
			c0.511,0.021,1.076-0.122,1.519,0.054c0.472,0.188,0.502,0.839,0.703,1.294c1.714,3.896,3.417,7.797,5.11,11.703
			c0.244,0.563,0.389,0.593-0.379,0.589C2741.985,1379.515,2741.808,1379.516,2741.63,1379.516z M2735.849,1373.634
			c0.689,0,1.378-0.003,2.067,0.001c0.223,0.001,0.276-0.076,0.166-0.272c-0.032-0.057-0.037-0.128-0.062-0.189
			c-0.721-1.762-1.459-3.517-2.088-5.314c-0.021-0.062-0.05-0.121-0.076-0.181c-0.033,0.072-0.079,0.142-0.099,0.218
			c-0.216,0.814-0.479,1.612-0.791,2.394c-0.395,0.986-0.796,1.971-1.189,2.958c-0.148,0.372-0.142,0.38,0.271,0.385
			C2734.649,1373.639,2735.249,1373.634,2735.849,1373.634z"/>
		<path fill-rule="evenodd" clip-rule="evenodd" fill="#FE7B01" d="M2793.633,1379.516c-0.689,0.221-1.171-0.208-1.635-0.87
			c-1.073-1.53-2.223-3.006-3.331-4.51c-0.153-0.208-0.227-0.281-0.419-0.023c-1.227,1.639-2.48,3.257-3.698,4.902
			c-0.282,0.381-0.578,0.558-1.054,0.51c-0.42-0.042-0.846-0.007-1.27-0.01c-0.088,0-0.231,0.009-0.253-0.034
			c-0.053-0.107,0.051-0.202,0.116-0.285c0.878-1.122,1.76-2.24,2.639-3.361c0.797-1.015,1.579-2.042,2.396-3.041
			c0.232-0.284,0.204-0.446-0.007-0.725c-1.424-1.88-2.825-3.777-4.234-5.668c-0.079-0.107-0.165-0.21-0.24-0.32
			c-0.097-0.142-0.019-0.196,0.118-0.197c0.601-0.003,1.203,0.006,1.804-0.006c0.249-0.005,0.348,0.167,0.464,0.326
			c1.104,1.508,2.283,2.96,3.322,4.516c0.167,0.25,0.246,0.231,0.405,0.007c1.11-1.56,2.358-3.014,3.527-4.528
			c0.187-0.242,0.376-0.334,0.669-0.322c0.444,0.019,0.891,0.004,1.336,0.006c0.082,0,0.205-0.029,0.227,0.057
			c0.017,0.062-0.061,0.157-0.112,0.225c-1.136,1.484-2.273,2.967-3.412,4.449c-0.325,0.424-0.655,0.843-0.979,1.268
			c-0.363,0.478-0.364,0.482-0.003,0.964c1.109,1.477,2.222,2.951,3.331,4.427c0.481,0.64,0.959,1.283,1.438,1.925
			c0.064,0.087,0.191,0.186,0.133,0.277c-0.038,0.058-0.207,0.037-0.317,0.039
			C2794.325,1379.519,2794.059,1379.516,2793.633,1379.516z"/>
		<path fill-rule="evenodd" clip-rule="evenodd" fill="none" d="M2748.518,1377.912c-0.69,0-1.38-0.007-2.069,0.004
			c-0.251,0.004-0.355-0.073-0.353-0.341c0.01-1.335,0.007-2.67,0.002-4.005c-0.001-0.209,0.043-0.341,0.29-0.333
			c1.576,0.051,3.159-0.126,4.728,0.135c1.981,0.33,2.321,2.289,1.586,3.448c-0.521,0.822-1.364,1.021-2.25,1.074
			c-0.643,0.038-1.29,0.007-1.935,0.007C2748.518,1377.905,2748.518,1377.908,2748.518,1377.912z"/>
		<path fill-rule="evenodd" clip-rule="evenodd" fill="none" d="M2748.421,1371.628c-0.762,0-1.385-0.004-2.008,0.003
			c-0.221,0.002-0.318-0.073-0.316-0.309c0.008-1.18,0.005-2.36,0.002-3.54c-0.001-0.186,0.057-0.299,0.262-0.292
			c1.465,0.048,2.934-0.096,4.398,0.111c0.998,0.141,1.66,0.821,1.71,1.966c0.043,0.995-0.611,1.721-1.658,1.938
			C2749.971,1371.681,2749.125,1371.601,2748.421,1371.628z"/>
		<path fill-rule="evenodd" clip-rule="evenodd" fill="none" d="M2775.503,1367.49c0.753,0.048,1.667-0.088,2.569,0.107
			c1.047,0.226,1.758,1.022,1.798,2.103c0.043,1.156-0.488,1.995-1.497,2.332c-0.443,0.148-0.902,0.246-1.368,0.251
			c-1.267,0.016-2.534,0.002-3.802,0.021c-0.322,0.005-0.416-0.094-0.412-0.414c0.017-1.334,0.018-2.668,0-4.001
			c-0.004-0.333,0.113-0.414,0.424-0.405C2773.926,1367.503,2774.637,1367.49,2775.503,1367.49z"/>
		<path fill-rule="evenodd" clip-rule="evenodd" fill="none" d="M2735.849,1373.634c-0.6,0-1.2,0.005-1.8-0.001
			c-0.413-0.004-0.419-0.013-0.271-0.385c0.393-0.987,0.794-1.971,1.189-2.958c0.313-0.782,0.575-1.58,0.791-2.394
			c0.02-0.076,0.065-0.146,0.099-0.218c0.025,0.06,0.054,0.119,0.076,0.181c0.629,1.798,1.367,3.553,2.088,5.314
			c0.025,0.062,0.029,0.133,0.062,0.189c0.11,0.196,0.057,0.273-0.166,0.272C2737.227,1373.631,2736.538,1373.634,2735.849,1373.634
			z"/>
	</g>
</g>
</svg>
